Coordinates
version=1
nRows=20
nColumns=26
inDegrees=yes

Units are S.I. units (second, meters, Newtons, ...)
Angles are in degrees.

endheader
time	pelvis_tilt	pelvis_list	pelvis_rotation	pelvis_tx	pelvis_ty	pelvis_tz	hip_flexion_r	hip_adduction_r	hip_rotation_r	knee_angle_r	knee_angle_r_beta	ankle_angle_r	subtalar_angle_r	mtp_angle_r	hip_flexion_l	hip_adduction_l	hip_rotation_l	knee_angle_l	knee_angle_l_beta	ankle_angle_l	subtalar_angle_l	mtp_angle_l	lumbar_extension	lumbar_bending	lumbar_rotation
    204.75202360	    -12.66722670	      3.85244686	     -2.29880724	      0.22268572	      1.07410780	      0.22882291	     -6.48085277	     -0.49491585	      8.31724004	     18.54180476	     18.54180476	    -19.27870772	    -12.05725102	      0.00000000	     42.70467200	      4.06138137	     -1.29608684	     47.87936417	     47.87936417	     -3.16149073	    -18.45774870	      0.00000000	     -6.26657350	     -3.19592073	     14.46095890
    204.76202360	    -12.77308444	      3.31812627	     -1.89315970	      0.22515506	      1.07715224	      0.22943781	     -7.94808281	      0.08894841	      9.45128286	     17.78564052	     17.78564052	    -23.32011977	    -12.74416607	      0.00000000	     41.90916347	      4.04589526	     -0.43372995	     41.82399786	     41.82399786	     -2.81870222	    -16.42073223	      0.00000000	     -5.94922712	     -2.83601613	     14.67504508
    204.77202360	    -12.32568669	      2.55648472	     -1.65151542	      0.22736760	      1.07966097	      0.23043505	     -9.65822322	      1.07622908	     11.50438824	     17.83420433	     17.83420433	    -27.50670893	    -14.64914583	      0.00000000	     40.50814368	      3.65230213	      0.22376648	     36.11030301	     36.11030301	     -2.29948600	    -13.85297843	      0.00000000	     -6.36200410	     -2.22295095	     14.67063541
    204.78202360	    -12.03849558	      1.87933003	     -1.47901196	      0.22928257	      1.08067769	      0.23148198	    -10.59845474	      2.00246157	     12.91393558	     19.25922228	     19.25922228	    -30.37154685	    -15.86700879	      0.00000000	     39.32785651	      3.20041954	      0.52402153	     30.88589915	     30.88589915	     -2.00598289	    -11.15886079	      0.00000000	     -6.58476968	     -1.71994449	     14.81945813
    204.79202360	    -11.65069931	      1.40383636	     -1.21065187	      0.23093569	      1.08057512	      0.23235550	    -11.12336264	      2.78692418	     13.44674392	     21.98731627	     21.98731627	    -30.90205305	    -16.70413668	      0.00000000	     38.16010234	      2.94378884	      0.34526127	     26.35766320	     26.35766320	     -2.15218064	     -8.74445667	      0.00000000	     -6.95594836	     -1.45615093	     14.81381445
    204.80202360	    -10.96823078	      1.09654476	     -0.92406936	      0.23243776	      1.07983046	      0.23319059	    -11.62139888	      3.48332680	     13.70591611	     25.53899224	     25.53899224	    -29.92929539	    -17.63174349	      0.00000000	     36.86874452	      2.76986400	     -0.55788135	     22.85067401	     22.85067401	     -2.28406908	     -6.32944001	      0.00000000	     -7.67467449	     -1.39875907	     14.64564679
    204.81202360	    -10.18660265	      0.81172166	     -0.47120841	      0.23359590	      1.07839167	      0.23367530	    -11.83251424	      4.20467754	     13.46775839	     29.85618042	     29.85618042	    -27.64741632	    -17.87826711	      0.00000000	     35.74703577	      2.66559853	     -1.91128074	     20.57268672	     20.57268672	     -2.20217122	     -4.07957934	      0.00000000	     -8.56101870	     -1.34710908	     14.19353718
    204.82202360	     -9.35145054	      0.11874562	      0.30244128	      0.23415620	      1.07643484	      0.23388216	    -11.90029244	      5.57357280	     13.20848083	     34.36443511	     34.36443511	    -26.48181776	    -19.21823765	      0.00000000	     34.76238128	      2.44532533	     -2.46705941	     19.34859192	     19.34859192	     -2.25865822	     -3.31704131	      0.00000000	     -9.59779873	     -0.75403290	     13.44012396
    204.83202360	     -8.81101160	      0.48014088	      0.81211822	      0.23449693	      1.07308321	      0.23409073	    -10.99731756	      5.48132894	     11.82125794	     40.03754465	     40.03754465	    -23.12254353	    -18.61518580	      0.00000000	     34.19033249	      2.91264133	     -4.28573722	     19.12693512	     19.12693512	     -1.64195037	     -1.83006304	      0.00000000	    -10.24541020	     -1.43101687	     12.93597645
    204.84202360	     -8.18139168	      0.35318182	      1.31966247	      0.23431312	      1.06903584	      0.23460074	    -10.06161705	      5.99830181	     10.86218181	     45.62174965	     45.62174965	    -21.50898992	    -18.98497868	      0.00000000	     33.62007234	      2.98157406	     -5.15937672	     19.73756977	     19.73756977	     -1.47426150	     -1.94111378	      0.00000000	    -11.08141677	     -1.53270910	     12.39966439
    204.85202360	     -7.58823489	      0.16347614	      1.64774723	      0.23394173	      1.06381464	      0.23546956	     -8.80242522	      6.42667476	      9.81938532	     51.43887562	     51.43887562	    -20.23893625	    -19.12713550	      0.00000000	     33.08725536	      2.91461675	     -5.58450079	     20.96054262	     20.96054262	     -1.51338322	     -2.94495612	      0.00000000	    -11.86966896	     -1.58009006	     12.06464709
    204.86202360	     -7.08029550	      0.04805896	      1.82835844	      0.23335362	      1.05751710	      0.23692706	     -7.26101866	      6.67192023	      8.78479103	     57.33989181	     57.33989181	    -19.45668043	    -19.47343831	      0.00000000	     32.63850629	      2.83225745	     -5.55302615	     22.70698673	     22.70698673	     -1.96789063	     -4.27875147	      0.00000000	    -12.56464965	     -1.79786641	     11.71648238
    204.87202360	     -6.88245404	      0.01140317	      1.97718670	      0.23219032	      1.04994683	      0.23818595	     -5.14298952	      6.58829205	      7.54028581	     63.35875123	     63.35875123	    -18.49453466	    -19.40338261	      0.00000000	     32.53760889	      2.96780707	     -4.72367757	     24.97483103	     24.97483103	     -2.77839966	     -6.48817098	      0.00000000	    -12.93532349	     -2.06199835	     11.53082588
    204.88202360	     -6.42680089	      0.33597752	      2.12064726	      0.23125538	      1.04197674	      0.23883975	     -3.27807153	      5.91790672	      6.23936658	     69.17639015	     69.17639015	    -17.54346708	    -19.65448951	      0.00000000	     32.04221583	      3.64475413	     -3.83548781	     28.05344503	     28.05344503	     -0.77784107	     -8.72217859	      0.00000000	    -13.59829367	     -2.63490541	     11.10402675
    204.89202360	     -6.43229476	      0.80301936	      2.14572701	      0.22978627	      1.03253708	      0.23920143	     -0.73240182	      4.84839068	      5.12236190	     75.11866635	     75.11866635	    -15.44912742	    -19.03302081	      0.00000000	     32.16386304	      4.53969297	     -3.59359786	     32.33910412	     32.33910412	      4.72116711	    -11.02733008	      0.00000000	    -13.72043565	     -3.33126784	     10.62624303
    204.90202360	     -6.51490535	      1.17943167	      2.33864296	      0.22734877	      1.02305288	      0.23990234	      2.02860131	      3.89911045	      4.06960640	     80.79883033	     80.79883033	    -13.38314284	    -18.94200290	      0.00000000	     32.62096238	      5.25836744	     -3.65508812	     36.70168474	     36.70168474	      8.69970176	    -12.80153179	      0.00000000	    -13.88426540	     -3.95663325	      9.97405606
    204.91202360	     -6.89655586	      1.55510669	      2.74734846	      0.22367445	      1.01425462	      0.24065720	      5.34473365	      2.91032004	      3.04161331	     86.20951991	     86.20951991	    -11.31739063	    -18.98609318	      0.00000000	     33.45080131	      5.95953729	     -3.38380461	     40.75743436	     40.75743436	     10.97929274	    -14.44484349	      0.00000000	    -13.90556339	     -4.59583437	      9.10391305
    204.92202360	     -7.44600843	      1.99534913	      3.27027215	      0.21946262	      1.00704881	      0.24128132	      9.01076209	      1.85339869	      2.23304108	     91.10544392	     91.10544392	     -9.38675498	    -19.00437464	      0.00000000	     34.02652592	      6.60325066	     -3.02684003	     44.26628804	     44.26628804	     13.51093619	    -14.71373242	      0.00000000	    -13.88895812	     -5.29651175	      7.83146076
    204.93202360	     -7.97679826	      2.47464165	      3.79037451	      0.21533608	      1.00178756	      0.24173923	     12.74639993	      0.79184722	      1.76839987	     95.31124813	     95.31124813	     -7.71906020	    -18.97311680	      0.00000000	     33.81318124	      7.17040785	     -2.70548067	     46.53187629	     46.53187629	     16.16155723	    -14.04152511	      0.00000000	    -13.91031135	     -5.98491849	      6.38450751
    204.94202360	     -8.34625873	      2.96191746	      4.24147252	      0.21187417	      0.99824528	      0.24187162	     16.33394786	     -0.25268548	      1.62107943	     98.74948843	     98.74948843	     -6.33560870	    -18.73438224	      0.00000000	     32.77094639	      7.70732987	     -2.37519620	     47.70108494	     47.70108494	     18.64202348	    -13.16358895	      0.00000000	    -13.99216921	     -6.55863911	      5.00467144
